<svg width="100" height="100" viewBox="0 0 32 32" fill="none" xmlns="http://www.w3.org/2000/svg">
<path d="M16 2.66666C14.249 2.66666 12.5152 3.01153 10.8976 3.6816C9.27988 4.35166 7.81003 5.33379 6.57191 6.5719C4.07143 9.07238 2.66667 12.4638 2.66667 16C2.66667 19.5362 4.07143 22.9276 6.57191 25.4281C7.81003 26.6662 9.27988 27.6483 10.8976 28.3184C12.5152 28.9884 14.249 29.3333 16 29.3333C19.5362 29.3333 22.9276 27.9286 25.4281 25.4281C27.9286 22.9276 29.3333 19.5362 29.3333 16C29.3333 14.249 28.9885 12.5152 28.3184 10.8975C27.6483 9.27987 26.6662 7.81001 25.4281 6.5719C24.19 5.33379 22.7201 4.35166 21.1025 3.6816C19.4848 3.01153 17.751 2.66666 16 2.66666ZM9.42667 24.3733C10 23.1733 13.4933 22 16 22C18.5067 22 22 23.1733 22.5733 24.3733C20.76 25.8133 18.48 26.6667 16 26.6667C13.52 26.6667 11.24 25.8133 9.42667 24.3733ZM24.48 22.44C22.5733 20.12 17.9467 19.3333 16 19.3333C14.0533 19.3333 9.42667 20.12 7.52001 22.44C6.16001 20.6667 5.33334 18.4267 5.33334 16C5.33334 10.12 10.12 5.33332 16 5.33332C21.88 5.33332 26.6667 10.12 26.6667 16C26.6667 18.4267 25.84 20.6667 24.48 22.44ZM16 7.99999C13.4133 7.99999 11.3333 10.08 11.3333 12.6667C11.3333 15.2533 13.4133 17.3333 16 17.3333C18.5867 17.3333 20.6667 15.2533 20.6667 12.6667C20.6667 10.08 18.5867 7.99999 16 7.99999ZM16 14.6667C15.4696 14.6667 14.9609 14.4559 14.5858 14.0809C14.2107 13.7058 14 13.1971 14 12.6667C14 12.1362 14.2107 11.6275 14.5858 11.2524C14.9609 10.8774 15.4696 10.6667 16 10.6667C16.5304 10.6667 17.0391 10.8774 17.4142 11.2524C17.7893 11.6275 18 12.1362 18 12.6667C18 13.1971 17.7893 13.7058 17.4142 14.0809C17.0391 14.4559 16.5304 14.6667 16 14.6667Z" fill="white"/>
</svg>
