<svg width="100" height="100" viewBox="0 0 32 32" fill="none" xmlns="http://www.w3.org/2000/svg">
<path d="M26.6667 2.66666C27.3739 2.66666 28.0522 2.94761 28.5523 3.4477C29.0524 3.9478 29.3333 4.62608 29.3333 5.33332V21.3333C29.3333 22.0406 29.0524 22.7188 28.5523 23.2189C28.0522 23.719 27.3739 24 26.6667 24H7.99999L2.66666 29.3333V5.33332C2.66666 3.85332 3.86666 2.66666 5.33332 2.66666H26.6667ZM5.33332 5.33332V22.8933L6.89332 21.3333H26.6667V5.33332H5.33332ZM7.99999 9.33332H24V12H7.99999V9.33332ZM7.99999 14.6667H20V17.3333H7.99999V14.6667Z" fill="white"/>
</svg>
