<svg width="100" height="100" viewBox="0 0 32 32" fill="none" xmlns="http://www.w3.org/2000/svg">
<path d="M16.1333 24.7333L16 24.8667L15.8533 24.7333C9.51999 18.9867 5.33332 15.1867 5.33332 11.3333C5.33332 8.66667 7.33332 6.66667 9.99999 6.66667C12.0533 6.66667 14.0533 8 14.76 9.81333H17.24C17.9467 8 19.9467 6.66667 22 6.66667C24.6667 6.66667 26.6667 8.66667 26.6667 11.3333C26.6667 15.1867 22.48 18.9867 16.1333 24.7333ZM22 4C19.68 4 17.4533 5.08 16 6.77333C14.5467 5.08 12.32 4 9.99999 4C5.89332 4 2.66666 7.21333 2.66666 11.3333C2.66666 16.36 7.19999 20.48 14.0667 26.7067L16 28.4667L17.9333 26.7067C24.8 20.48 29.3333 16.36 29.3333 11.3333C29.3333 7.21333 26.1067 4 22 4Z" fill="white"/>
</svg>
