<?xml version="1.0" encoding="utf-8"?>
<svg viewBox="0 0 268.81573 150.06727" xmlns="http://www.w3.org/2000/svg">
  <g id="layer1" transform="matrix(1, 0, 0, 1, 27.368389, -138.364731)">
    <path style="fill:#FFFFFF;stroke-width:0.264583" d="m -7.2819367,268.13514 c -0.076274,-0.20052 -0.1081498,-24.951 -0.070835,-55.00105 l 0.067846,-54.63646 114.3661357,-0.0664 114.36614,-0.0665 v 55.03364 c 0,37.10973 -0.0876,55.03364 -0.26896,55.03364 -0.14792,0 -1.78503,-0.24385 -3.63802,-0.54188 -22.27654,-3.58297 -49.90212,-6.55498 -71.10239,-7.64933 -2.91042,-0.15024 -6.18463,-0.33 -7.27604,-0.39948 -11.44598,-0.72863 -46.111721,-0.81272 -60.589577,-0.14698 -21.333719,0.981 -38.585594,2.41038 -57.679165,4.77894 -6.908482,0.85699 -21.87747661,2.9936 -27.0489558,3.86084 -0.7139879,0.11974 -1.0259097,0.0646 -1.1261789,-0.19898 z m 14.264019,-8.82591 c 21.7061557,-3.13711 45.5824487,-5.37866 67.8861137,-6.37329 11.623937,-0.51837 15.95773,-0.58191 35.189574,-0.51592 14.86181,0.051 23.51893,0.19849 29.50104,0.50264 24.90703,1.26634 45.87479,3.24592 67.72342,6.3938 3.48705,0.50241 6.55291,0.91346 6.81302,0.91346 0.45244,0 0.47294,-2.05874 0.47294,-47.4927 v -47.49271 h -107.55029 -107.55028071 l -0.00423,47.49271 -0.00423,47.4927 h 0.5762175 c 0.3169205,0 3.44293811,-0.41431 6.94670951,-0.92069 z m 56.3767397,-27.80896 c -3.886221,-0.55385 -6.457471,-1.29688 -9.161431,-2.64745 -2.722176,-1.35967 -4.167158,-2.41407 -6.316694,-4.60926 -3.176108,-3.24356 -5.139621,-7.04578 -6.146331,-11.90199 -0.691171,-3.33408 -0.541211,-9.15987 0.313317,-12.17206 2.692373,-9.49056 10.514443,-16.30239 20.373011,-17.74176 5.18166,-0.75654 12.063679,0.16627 16.489346,2.21106 1.948415,0.90022 6.012322,3.6782 6.012322,4.10987 0,0.19048 -5.29537,6.74116 -6.203619,7.67424 -0.286932,0.29478 -0.628983,0.14532 -2.031637,-0.88777 -0.92764,-0.68322 -2.104141,-1.45544 -2.614448,-1.71606 -2.992419,-1.52821 -7.645384,-2.22778 -10.651019,-1.60136 -4.538236,0.94583 -8.600691,4.65537 -10.265717,9.37392 -0.787529,2.23179 -0.988684,6.76282 -0.409757,9.2297 1.1303,4.81634 4.20856,8.36789 8.823978,10.18068 1.589683,0.62438 2.156627,0.70371 5.09597,0.71304 3.610507,0.0114 5.968788,-0.51368 8.532812,-1.9001 l 1.256771,-0.67956 v -3.39753 -3.39754 h -5.297913 -5.297916 l 0.0724,-4.56406 0.07239,-4.56406 h 10.318749 10.31875 l 0.06921,10.37862 0.06921,10.37862 -1.482555,1.16361 c -3.271774,2.5679 -8.023762,4.80232 -12.199845,5.73645 -2.240309,0.50113 -8.021658,0.87554 -9.739354,0.63075 z m -45.245289,-1.22883 c -0.08069,-0.33049 -0.113355,-11.07839 -0.07259,-23.88422 l 0.07413,-23.28333 5.35922,-0.0716 5.35922,-0.0716 -0.06755,23.88413 -0.06755,23.88412 -5.21908,0.0717 -5.219084,0.0717 z m 81.360911,-23.37448 v -23.96421 l 11.707806,0.10745 c 11.62161,0.10667 11.72632,0.11252 14.22136,0.79455 4.98424,1.36246 8.45383,3.36847 11.69656,6.7626 3.13861,3.28514 4.98992,6.86304 5.916,11.43342 0.60482,2.98495 0.40902,8.54168 -0.40057,11.36791 -2.70383,9.43885 -10.61302,15.89036 -21.04845,17.16919 -1.34402,0.16471 -6.67423,0.29214 -12.23698,0.29256 l -9.855726,7.9e-4 v -23.96421 z m 22.462296,13.76785 c 6.27919,-1.48013 10.32367,-6.82444 10.34144,-13.66498 0.0175,-6.72129 -3.65506,-11.91693 -9.78499,-13.84316 -1.10464,-0.34712 -2.7778,-0.48963 -6.94531,-0.59155 l -5.49011,-0.13427 v 14.32037 14.32037 l 5.09323,-0.004 c 3.60234,-0.003 5.58866,-0.1207 6.78574,-0.40287 z m 33.54117,10.01998 c -0.097,-0.097 -0.17639,-10.88006 -0.17639,-23.96232 v -23.78593 l 13.29531,0.0999 c 12.87851,0.0968 13.35753,0.11857 15.27969,0.69597 6.44283,1.93539 9.83941,6.44321 9.44475,12.53477 -0.24596,3.79647 -1.95878,6.76368 -5.19545,9.00036 -0.35502,0.24534 -0.59315,0.49423 -0.52917,0.55309 0.064,0.0589 0.89024,0.49382 1.83612,0.96658 4.44514,2.22172 6.61458,5.7352 6.61458,10.71253 0,7.40477 -4.95682,11.94743 -14.28056,13.08735 -2.44148,0.29849 -26.00053,0.38606 -26.28888,0.0977 z m 27.216,-10.15805 c 2.21598,-1.14117 3.15391,-3.19219 2.52902,-5.5303 -0.5583,-2.08896 -2.11049,-3.21889 -5.08477,-3.70151 -0.92708,-0.15043 -4.51333,-0.2744 -7.96945,-0.27551 l -6.28385,-0.002 -0.0281,4.29948 c -0.0154,2.36471 -0.0501,4.69421 -0.0771,5.17667 l -0.0491,0.87719 7.82422,-0.0834 c 7.79898,-0.0832 7.82845,-0.0856 9.13911,-0.76059 z m -3.28721,-18.87449 c 3.11619,-1.14606 4.29097,-4.44775 2.52589,-7.09897 -1.24153,-1.86482 -3.33765,-2.32127 -10.65989,-2.32127 h -5.38784 v 5.05499 5.05499 l 6.15156,-0.12076 c 4.90154,-0.0962 6.39921,-0.21184 7.37028,-0.56898 z" id="path2090"/>
  </g>
</svg>